<?xml version="1.0" encoding="UTF-8" standalone="no"?>
<svg xmlns:rdf="http://www.w3.org/1999/02/22-rdf-syntax-ns#" xmlns="http://www.w3.org/2000/svg" height="145.46pt" width="179.75pt" version="1.1" xmlns:cc="http://creativecommons.org/ns#" xmlns:xlink="http://www.w3.org/1999/xlink" viewBox="0 0 179.74608 145.46112" xmlns:dc="http://purl.org/dc/elements/1.1/"><metadata><rdf:RDF><cc:Work rdf:about=""><dc:format>image/svg+xml</dc:format><dc:type rdf:resource="http://purl.org/dc/dcmitype/StillImage"/><dc:title/></cc:Work></rdf:RDF></metadata><defs><symbol id="b" overflow="visible"></symbol><symbol id="a" overflow="visible"></symbol><clipPath><path d="m1 1h399.28v343h-399.28z"/></clipPath><clipPath id="d"><rect y="0" width="401" x="0" height="345"/></clipPath><g clip-path="url(#d)"></g><clipPath><path d="m1 1h380.28v312h-380.28z"/></clipPath><clipPath id="c"><rect y="0" width="382" x="0" height="314"/></clipPath><g clip-path="url(#c)"></g><clipPath><path d="m0 1h595.28v284h-595.28z"/></clipPath><clipPath id="f"><rect y="0" width="596" x="0" height="286"/></clipPath><g clip-path="url(#f)"></g><clipPath><path d="m0 1h595.28v279h-595.28z"/></clipPath><clipPath id="e"><rect y="0" width="596" x="0" height="281"/></clipPath><g clip-path="url(#e)"></g></defs><g transform="translate(-720.04 -105.94)"><path d="m899.75 105.94-155.82 46.414c-13.77 3.9805-23.91 13-23.891 26.832 0.0312 12.992 9.2344 22.777 21.578 26.352l0.0195 0.008c2.2344 0.64453 158.15 45.855 158.15 45.855z" fill="#de1e26"/><g fill="#fff"><path d="m773.49 169.71c-0.5 2.3789-2.2422 3.9219-6.625 3.9219h-4.4844l1.6953-7.8398h4.4297c4.7383 0 5.5274 1.3828 4.9844 3.918m-1.7461 14.57c-0.64062 2.9766-2.8398 4.3125-8.0625 4.3125h-4.4883l1.8398-8.6211h4.4922c5.2266 0 6.8242 1.3359 6.2188 4.3086m77.324-25.133c-6.8906 0-8.5976 4.8906-8.5976 4.8906l-7.3984 17.469h-0.15234l-1.8906-22.359h-11.645c-5.5859 0-7.832 5.0625-7.832 5.0625l-8.8633 17.297h-0.14844l-0.0508-22.359h-7.8945c-5.2266 0-6.3672 2.8125-6.5977 4.4062-1.5078-2.8828-5.6797-4.4062-13.113-4.4062h-18.734c-6.0664 0-6.6094 4.5039-6.6094 4.5039l-6.8359 31.289h26.508c7.7656 0 10.254-0.79297 13.047-2.7734 1.8945-1.3398 3.4297-3.668 4.0312-6.4453 1.293-6.1445-3.0898-8.5781-8.0703-8.875v-0.0977c4.543-1.0391 8.418-3.0312 9.8555-7.0625l0.5664 25.254h12.656c7.2461 0 9.9258-6.5664 9.9258-6.5664l7.7539-15.199h0.14844l1.793 21.766h11.293c8.1836 0 10.973-7.0625 10.973-7.0625l9.9453-22.074-6.207 29.137h6.7461c8.7305 0 9.8828-6.9297 9.8828-6.9297l1.3594-6.3555h9.6914c7.4609 0 8.5352-5.6523 8.5352-5.6523l0.40234-1.8828h-17.035l1.5898-7.4375h10.711c7.3125 0 8.3594-5.3867 8.3594-5.3867l0.45703-2.1484z"/><use xlink:href="#b" height="100%" width="100%" y="497.29001" x="403.03781"/><use xlink:href="#a" height="100%" width="100%" y="547.94513" x="442.58481"/></g></g></svg>
